# xmcd CD database file
#
# Track frame offsets:
#	150
#	15877
#	36624
#	75494
#	95558
#	110200
#	130367
#	145104
#	160994
#	179851
#	215225
#	231014
#	253929
#	275988
#	294143
#	314030
#
# Disc length: 4363 seconds
#
# Revision: 0
# Processed by: cddbd v1.5.2PL0 Copyright (c) Steve Scherf et al.
# Submitted via: CDex 1.70beta2
#
DISCID=fd110910
DTITLE=George Thorogood - George Thorogood  Selection
DYEAR=1986
DGENRE=Blues
TTITLE0=You got to lose
TTITLE1=Madison blues
TTITLE2=One bourbon, One scotch, One beer
TTITLE3=Kind hearted woman
TTITLE4=Can't stop lovin'
TTITLE5=Ride on Josephine
TTITLE6=Homesick boy
TTITLE7=John hardy
TTITLE8=I'll change My style
TTITLE9=Delaware slide
TTITLE10=Nobody But Me
TTITLE11=New Boogie Chillun
TTITLE12=Bad To The Bone
TTITLE13=No Particular Place To Go
TTITLE14=Who Do You Love 
TTITLE15=Cocaine Blues
EXTD=YEAR: 1986
EXTT0=
EXTT1=
EXTT2=
EXTT3=
EXTT4=
EXTT5=
EXTT6=
EXTT7=
EXTT8=
EXTT9=
EXTT10=
EXTT11=
EXTT12=
EXTT13=
EXTT14=
EXTT15=
PLAYORDER=
